# xmcd CD database file
#
# Track frame offsets:
#	150
#	13422
#	27185
#	39047
#	50022
#	65160
#	80442
#	93072
#	103225
#	117540
#	126870
#
# Disc length: 1858 seconds
#
# Revision: 0
# Processed by: cddbd v1.5.2PL0 Copyright (c) Steve Scherf et al.
# Submitted via: CDex 1.70beta2
#
DISCID=9207400b
DTITLE=Johnny Paycheck - She's All I Got
DYEAR=1998
DGENRE=Country
TTITLE0=She's All I Got
TTITLE1=You Touched My Life
TTITLE2=Love Sure Is Beautiful
TTITLE3=She's Everything to Me
TTITLE4=My Elusive Dreams
TTITLE5=He Will Break Your Heart
TTITLE6=You Once Lived Here
TTITLE7=Only Love Can Save Us Now
TTITLE8=Let's Walk Hand in Hand
TTITLE9=Livin' in a House Full of Love
TTITLE10=A Man That's Satisfied
EXTD=YEAR: 1998
EXTT0=
EXTT1=
EXTT2=
EXTT3=
EXTT4=
EXTT5=
EXTT6=
EXTT7=
EXTT8=
EXTT9=
EXTT10=
PLAYORDER=
